<mxfile host="Electron" agent="Mozilla/5.0 (Windows NT 10.0; Win64; x64) AppleWebKit/537.36 (KHTML, like Gecko) draw.io/25.0.2 Chrome/128.0.6613.186 Electron/32.2.5 Safari/537.36" version="25.0.2">
  <diagram name="Page-1" id="EvXz2jEE_VdpUTaoo9KF">
    <mxGraphModel dx="819" dy="482" grid="0" gridSize="10" guides="1" tooltips="1" connect="1" arrows="1" fold="1" page="1" pageScale="1" pageWidth="827" pageHeight="1169" math="1" shadow="0">
      <root>
        <mxCell id="0" />
        <mxCell id="1" parent="0" />
        <mxCell id="Dw2MMW9WSzqWJ1zn07Y3-5" value="$$ f(x) = sign(w^{T}x+b) $$" style="text;html=1;align=center;verticalAlign=middle;resizable=0;points=[];autosize=1;strokeColor=none;fillColor=none;" vertex="1" parent="1">
          <mxGeometry x="191" y="610" width="170" height="30" as="geometry" />
        </mxCell>
        <mxCell id="Dw2MMW9WSzqWJ1zn07Y3-7" value="&lt;div style=&quot;text-align: left;&quot;&gt;&lt;span style=&quot;background-color: initial;&quot;&gt;&lt;b&gt;Weight:&lt;/b&gt; 0 for non-support vectors&lt;/span&gt;&lt;/div&gt;&lt;div style=&quot;text-align: left;&quot;&gt;&lt;span style=&quot;background-color: initial;&quot;&gt;&lt;b&gt;Label:&lt;/b&gt; e.g. -1 or 1&lt;br&gt;&lt;/span&gt;&lt;span style=&quot;text-align: center;&quot;&gt;&lt;b&gt;Ø &lt;/b&gt;= Some Kernel&lt;/span&gt;&lt;span style=&quot;background-color: initial;&quot;&gt;&lt;br&gt;&lt;/span&gt;&lt;/div&gt;" style="text;html=1;align=center;verticalAlign=middle;resizable=0;points=[];autosize=1;strokeColor=none;fillColor=none;" vertex="1" parent="1">
          <mxGeometry x="312" y="685" width="200" height="60" as="geometry" />
        </mxCell>
        <mxCell id="Dw2MMW9WSzqWJ1zn07Y3-8" value="&lt;b&gt;Kernelized SVM prediction&lt;/b&gt;" style="text;html=1;align=center;verticalAlign=middle;resizable=0;points=[];autosize=1;strokeColor=#6c8ebf;fillColor=#dae8fc;" vertex="1" parent="1">
          <mxGeometry x="319" y="529" width="170" height="30" as="geometry" />
        </mxCell>
        <mxCell id="Dw2MMW9WSzqWJ1zn07Y3-9" value="$$ = sign( \sum_{i} weight_{i}*label_{i}*Ø(training\_vector_{i}, input\_to\_be\_predicted)+bias)$$" style="text;html=1;align=center;verticalAlign=middle;resizable=0;points=[];autosize=1;strokeColor=none;fillColor=none;" vertex="1" parent="1">
          <mxGeometry x="218" y="640" width="530" height="30" as="geometry" />
        </mxCell>
        <mxCell id="Dw2MMW9WSzqWJ1zn07Y3-11" value="&lt;b&gt;&lt;u&gt;Example&lt;/u&gt;&lt;/b&gt;" style="text;html=1;align=center;verticalAlign=middle;resizable=0;points=[];autosize=1;strokeColor=none;fillColor=none;" vertex="1" parent="1">
          <mxGeometry x="355" y="753" width="67" height="26" as="geometry" />
        </mxCell>
        <mxCell id="Dw2MMW9WSzqWJ1zn07Y3-13" value="&lt;i&gt;instead of &#39;a&#39; dot &#39;b&#39;&lt;br&gt;We do Ø(&#39;a&#39;) dot Ø(&#39;b&#39;) or Ø(a,b)&lt;/i&gt;" style="text;html=1;align=center;verticalAlign=middle;resizable=0;points=[];autosize=1;strokeColor=none;fillColor=none;" vertex="1" parent="1">
          <mxGeometry x="302" y="564" width="188" height="41" as="geometry" />
        </mxCell>
        <mxCell id="Dw2MMW9WSzqWJ1zn07Y3-14" value="Ø&lt;span style=&quot;font-weight: normal;&quot;&gt;(vector_a,vector_b)&lt;/span&gt; &lt;span style=&quot;font-weight: normal;&quot;&gt;= (a&lt;sup&gt;T&lt;/sup&gt;b)&lt;sup&gt;3&lt;/sup&gt;&lt;/span&gt;" style="text;html=1;align=center;verticalAlign=middle;resizable=0;points=[];autosize=1;strokeColor=none;fillColor=none;fontStyle=1" vertex="1" parent="1">
          <mxGeometry x="302" y="779" width="177" height="29" as="geometry" />
        </mxCell>
        <mxCell id="Dw2MMW9WSzqWJ1zn07Y3-15" value="$$ 0.1*1*\left(\color{blue}{\pmatrix{2 &amp;amp; 3}} \color{black}\pmatrix{2\\1}\right)^{3} + 1 = 35.3$$" style="text;html=1;align=center;verticalAlign=middle;resizable=0;points=[];autosize=1;strokeColor=none;fillColor=none;" vertex="1" parent="1">
          <mxGeometry x="146.5" y="1044" width="499" height="26" as="geometry" />
        </mxCell>
        <mxCell id="Dw2MMW9WSzqWJ1zn07Y3-17" value="$$ 1*-1*\left(\color{red}{\pmatrix{1 &amp;amp; 2}} \color{black}\pmatrix{2\\1}\right)^{3} + 1 = -63$$" style="text;html=1;align=center;verticalAlign=middle;resizable=0;points=[];autosize=1;strokeColor=none;fillColor=none;" vertex="1" parent="1">
          <mxGeometry x="155.5" y="1087" width="481" height="26" as="geometry" />
        </mxCell>
        <mxCell id="Dw2MMW9WSzqWJ1zn07Y3-18" value="$$ sign(35.3+-63) = \color{red}{-1}$$" style="text;html=1;align=center;verticalAlign=middle;resizable=0;points=[];autosize=1;strokeColor=none;fillColor=none;" vertex="1" parent="1">
          <mxGeometry x="288" y="1125" width="213" height="26" as="geometry" />
        </mxCell>
        <mxCell id="Dw2MMW9WSzqWJ1zn07Y3-19" value="" style="shape=image;verticalLabelPosition=bottom;labelBackgroundColor=default;verticalAlign=top;aspect=fixed;imageAspect=0;image=data:image/png,iVBORw0KGgoAAAANSUhEUgAAAtUAAAFoCAIAAAAXbZAKAAAgAElEQVR4Ae2dW4wk113/G4i4xNIKRQogEUwvZJB4QQHWGIQUNx4kyIOVGHhBEU0LQYgWgRCaGZ6SDiaWnDw40pIH1EG00YwgXIJgsyYOStMkiMuQcWLNQJy1/7udbLy7yXiCvdU7xOsdc/7T+5v9zZlT1dV1Off6jkbr6qpz/fxqXJ8+51RVS+AHBIIikCTJ6urq+vp6UK0+buy1a9e63e5Dd376/f7t27ePj4WzdXBw8N73vncwGHCTl5aWeBsbIAACILCQQGthCiQAAd8ITKdTKIi1oAwGg6W7P2tra1yvoiDwDyaDDRAAgSIE4B9FKCGNdwSgINZCsra2Jo9zyPXKCgL/kMlgGwRAYCEB+MdCREjgKYHpdOppy4o1K4iJmP39/W63OxqN5vXp4OCADsE/5iHCfhAAgUwC8I9MLNgJAjYI+K8gu7u7y8vLNP2yvLy8u7s7jwv8Yx4Z7AcBEMgkAP/IxIKdIGCJgOcKsrOz8+CDD+7s7Agh1tbWut3u/v6+jObcuXN3F4dg/akMBtsgAAILCMA/FgDCYRAwTcBzBeHuyy7CO3kD4x+MAhsgAAJFCMA/ilBCGhAwSyAIBdnZ2Xn44YfnTcHAP8yeIigdBKIjAP+ILqQN7tDzzz+P54Lojf9oNOI5l7U7P/PKZ/944YUX5t0vMy8v9oMACDSQAPyjgUGPtsu4KddEaPn5HywimbWwf8g35WamxE4QAAEQEELAP3AaREUACuIqnOwfQggoiKsooF4QCIgA/COgYKGphQhAQQph0p1I9g8oiG66KA8EIiQA/4gwqOgSFMT+OaD4BxTEfghQIwiERQD+EVa80NqiBKAgRUlpSpf2DyiIJrQoBgTiJAD/iDOu6JUQAgpi8zTI9A8oiM0QoC4QCIsA/COseKG15QjgHTHleNVIPc8/SEFqFIysIAACcRKAf8QZV/QqGgJBPJpMCJHjH9HEAh0BARDQSAD+oREmigIBIwSCUBD4h5HYo1AQiJcA/CPe2KJnERHwX0HgHxGdbugKCNggAP+wQRl1gEB9Ap4rCPyjfohRAgg0igD8o1HhRmfFl7/85Y2NjUBB+Kwgpfxjd3cX74gJ9CREs0FAFwH4hy6SKCcMAkmSrKysQEG0R6uUf+AB7dr5o0AQCI4A/CO4kKHBdQlAQeoSzMpfyj/wXJAshNgHAs0iAP9oVrzRWyIABdF+JpT1DyiI9hCgQBAIiwD8I6x4obXaCEBBtKG8U1AF/4CC6A0BSgOBsAjAP8KKF1qrkwAURCPNav4BBdEYAhQFAmERgH+EFS+0VjMBKIguoJX9AwqiKwQoBwTCIgD/CCteaK1+AkmS6C/UYome3JRbxz9IQSwyQ1UgAALuCcA/3McALQCBmgR8UJCa/lGTALKDAAgERwD+EVzI0GAQyCDgXEHgHxlRwS4QAIH5BOAf89ngCAgERcCtgsA/gjpZ0FgQcE8A/uE+BmgBCOgi4FBB4B+6gohyQKAhBOAfDQk0ulmCwLVr19bX10tk8CmpKwXR7h8vvfQS3hHj05mFtoCAZgLwD81AUVwEBJIkWV1dhYKUCqV2/8A7YkrxR2IQCI4A/CO4kKHBNghAQcpS1u4feC5I2RAgPQiERQD+EVa80Fp7BKAgpVib8A8oSKkQIDEIhEUA/hFWvNBaqwSgIMVxG/IPKEjxECAlCIRFAP4RVrzQWtsEptMp1oIUgW7OP6AgRfgjDQgERwD+EVzI0GDbBKAgRYgb9Q8oSJEQIA0IhEUA/hFWvCJpba9nqiOTiRgO9Rc+nU71F2qxRAs35Zr2D1KQ1157zSI2VAUCIGCQQDz+MZlUwVQtV5WakOcugX5fKNhJGsZjdf/dHNn/nUzEeDz7VX7GYyMKotQS3EfTCmLBP4JjjgaDAAjkEHDmH3q/p04motUqd/USYpa+Qq4cmg4PmfjSb6I7h7rQ758ouNeb6cJ4LHo90W4XVYfDQvr9Wa7hUHQ6aplpxTlRZVM/GFUQ+EdTTyv0GwQqEnDmH/3+7LKh8Sf9PbhI4dVyFSnZZpp+f3bl9v9nMlGDTg7BLe/3CxnhcDiTFR5ESXd/MpklwE+agDkFgX+kaWMPCIBADgFn/pH+zprTShzKJ9Dvh3G5pUELuS+dzgmToBEpZYBETk/bw+FMU9gdyVqUESBZUNIlNHmPIQWBfzT5pELfQaACATf+QZcZvn5Qu/nrLM2MlOqMnDdd2rwCq+XKLL9Ua4skTreNc6UPtVrqBERO4nR2Tmx6o9c7lgaqSxm6oBOj7MBYpzPTEeXnUEcWeoySpdTHF198EQ9ol4k58Y+bN2/iHTFyFLANAgERSP1v23DbaZq/05nNF/R6x9996Rs8fWelBQHKRYi+OtO/tFyAWkorANrt4wvb4fWVSqNFAP3+bInA4Wi8fDXiXHwxphF7GpWhEjIXFpDKUGnUDOVrdz4/uW2UUrkACzHryOFkCvdXLpA7Qke5za3WCZhMhtvJkxGHzkdwaP0NbZfqgtyesttpS1BKGI9nJiFHSkmQ/pjpsoRROYXSeevswU25Cj0n/oF3xChRwEcQCIiAbf8gNMriD7qLgS4kdKVUrsqkBZSXLlHsDXStousxF364QSXwlYxyUQKSACFOrFuka3A6l7KuQqmdpg+o2CL/UnvIbCi9UqBChr3hMLF8SO6OwoqKlaugvAxKiJms0MLbeRdvKiT9b683g5b/qwxrcSGTyeJFKpl94RKUDdIvWT3lBNQ1eY/2bSiIjNSJf+C5IHIIsA0CYRFw4x+yTxzy4qsyfz9mvRBiNnrB+5WPw+HRIkT5S7NsEhyM4fD44kfVKZdeumrSLRicK305VISDRnE4/cINqkUphL+mk1Xw9Vu+RUjRFPkW08PuUI+4diUxQSORosLl20wU1EpRXGb9jYX+QQM/3P2CNdKa1sxmW7i5CQrCYXLlH1AQDgE2QCAsAg78Q7nwMy+ajuGPvKFc49PJZLeQc8nXJHnwgNKk3UIIdfD/sAS5EGXZI6WvMHkhr508bAxXwTeg0swO7xfiaLqKeydvyO5F+9PrIWjAg3NlXpiHw6N7WTmZ3g3Si3llkp2UlQ8qjeKSDkRmN+c1oPJ+KAihc+gfUJDKZy8ygoBDAg78Y951SP5SLhNptWbXRf5JJ6NVDpyAH+whX8wyL9LyBZ5zyeUoVStXcWVgRs6Ys53Oxb1TTEsuRGkJH8qcZaDlIJyGPImnctIN4JTjsXp/LB+qvzEv7rykRo5XfnWTyfHNt7TUo9XKaLk8bJZfYM2jUBAhhFv/gILUPIeRHQTsE3DgH/JQhHzJyfy2mp5K4GQ0cSCPpnBpyogIX6TpiZmsGlQC51JGRPh6ybmUoRflY8HgKblkB0qrFZVJ7ZcnSrguuc3UEUrMTsMzVtxNpQFcVJE1m/krP+hoZjuZuVwdb7Mb0R658ZxG3mi1jmfT2D+UQhZO98gF1t+Ggjj3DyhI/dMYJYCATQIO/IMXfxxeqPjqO+9LuXLppSc90DWVrnN8AZaf3i0rziFNTsPVyXv4ekk3gzB9LoRzycMD1DDlmsd5cza4+3RJlq+18iEqgR9ioUzZ0BrSwzRym7kxnc7x3UC0zJYP0VSOXKncVLmD8n5d2+32iXELKpZuyqU1yLSuhYHT2g4OEDej0zkxJEYnj9Ipy/4hhGj4O2J88A9SkFdeeYVPFWyAAAh4S8CBf9ANsbJ80NVUvkbKvA6vRnQnLS1QoGsYX6LoRg+lNOVCThfpwwEAORdd9uSLljJHk85FN1xQM5Rr3nPPiUcfXfD77LOzbvE1lYdVuLPyIeoRX3rpzltWFmbF+7lr8mrTzLWZPIDE9fKGaf/IfP5HqzVbdiP/clAUyHI7+cGp1MfDiCs/dNooO/Exn0CdR5N54h/5HcRREAABfwg48A8aMOfpAGLBF9pMNPLtHvJdIZRYPsp7lHLSLyrL3LMwFxkAT2pw+ueeE5/4xIJf8g92iMwu82M5FD6ci6/NXHW6+5xYlhJKr6yc4EJow7R/HDZeaRIPe8gbcqvIw+Q9tM2gWESUNMogkHIUH+cRqKwg8I95SLEfBEAgk4Ab/8hsSlg7c1ZRhNURubWm/YMmgzLFS26GvJ3WTfnovG37ky/zWhLi/moKAv8IMdZoMwg4JAD/KAqfl4zQ+I3yXLKipXicTn4DbSlFKNWnstMi6fGeItXxg2GKJEaaNIEKCgL/SGPEHhAAgRwC8I8cOCcO8XIQmkRIz4+cSB3gB56aMScfRIVW8xQhlF4iUyRXematSC4TaV5++eWNjQ0TJVsos6yCeOsfr776Kt4RY+GEQRUgUJYA/KMcMdPX5nKtCTa1sgpEYz+qzddobIBcVJIkKysrDVEQb/0D74iRz0lsg4A/BOAf/sQCLYmQQHMUxFv/wHNBIvy7QpeiIAD/iCKM6ITHBBqiID77BxTE478PNK25BOAfzY09em6NQBMUxHP/gIJYO9tREQgUJAD/KAgKyUCgFoHoFcR//4CC1DqDkRkEdBOAf+gmivJAYA6BuBUkCP+Agsw5N7EbBBwQgH84gI4qG0sgSZKDg4Nwu59zU24o/kEKkiRJuFFAy0EgDgLwjzjiiF6AgCUC8xQkIP+wRArVgAAI5BKAf+TiwUEQAIEUgUwFgX+kOGEHCIBAHgE3/kGvtueXuOY18M4LYyl9qUdx0+NKC1aR34CyR/GMsrLEkN5/Aru7u8vLy6PRiJqaVhD4h/9BRAtBwCsCbvxDCHFoBqUegtlqlUtPVaRfy26OPr2HttUSpTzJXHtQMghoJLC2tra0tMT+IYRQFOTNb36zxupQFAiAQPQEnPlHKZ+YTMRh+rI/h/JRSnHKli+nHw5n2jEez9oJ/5DJYDufwP7+/vr6en4a50dHo1G325XHP6hJsoK84Q1vuH37tvOmVm4A3hFTGR0ygkA1AuWv6tXqOZmrrE/I7549WdLcT1SF5bfEUaXwj7lRwYEUgSRJVldXfVaQ3d3dhx9+eDQapf1DHgW55557+v1+oAqCd8SkTkzsAAHjBNz4R1mfKPvSdiFmQxHttnF8SgXwDwUIPhYh4LmCDO78KOs/uF/nzp07ffr0qVOn7rnnnoceeggKwmSwAQIgkE/AmX+kZ0aGQ0EzJv3+zB7kVZyt1tF6EVpVKh+aTI4OKQtKaMlqfue1H4V/aEfakAK9VZCdnZ2zZ8/u7+/P8w8K0LVr106dOvXQnR8oSENOWnQTBGoScOMf6cUfsi4oqyjoos53ssieQYMcrCOcRogjlSlFh2+Z6fVmTpP5y3Vllgz/yMSCnUUI+Kkgg8Fg6eSPvARV7tfp06e73S4URGaCbRAAgRwCDvyDLtJym0g4+NKufFQma9hUqBx5HIW36ZCy+GMyWbAydDKZDbrk/MptztyGf2Riwc6CBKbTqbdrQfLHP4QQS0tL8nJUjIIUDDqSgUBjCTjwD8UnaKxCvlF2ODxxt4uy+IOz9/tHN5vQfA3LR+bij+HwaDzDaKThH0bxNqFwbxWkiH/Iy1GxFqQJpyv6CAJ1CLjxD9kVhJhphDx1QhMf3CvlNtp2eza3krYWTn+4wWMk8k5SEHmP9m34h3akDSxwOp1+4xvfCK7j/PyxaEZBvv71rwcXBTQYBAIi4MA/ePEHzY8oqz2EmN23QrewUoJWa7YclX7kiZXD21sUj2HurCw8pyPErEzZcjgxb/R6M7PJ/5UL5Iy8Af9gFNhoGgH2j2hGQZoWQfQXBCwTsO0fdIWmNRZkD7JSkCW0WrNFGPQ4UdIRvurLAxvKMAlNu1BKUpbDbVlQFvpHffTwj/oMUUKgBGT/gIL4GcS9PcG/frYQrWoUAdv+wT4hm8HhNn08HOegVR309HSKBB+lG3Q5PJPJbKxCVhMeJmm3Z/vlKoqMf3DJFTZYmGguaTw+HrOpUBqygEBwBBT/gIJ4GMG9PXH+/Ox3b8/D1qFJjSPgwD9IBdgVxJ03zJF5kEyQOrBY0MAGLTJV4kMp6dnnyqF0eqPjH3RzDbWEn8WuNAkfQSBiAmn/gIL4Fm74h28RaXh73PiHE+hG/cNJj1BpQwjcvn3b5we0UxQy/SMyBQn9HTHwj4b8HyOUbjbFP8bj2eLTTkd9smoocUI7m0zA25ty5aDM849oFCSCd8TAP+QzFtvOCTTIP2iJhjzv45w+GgACBQn4ryA5/gEFKRhl7cl4tSltXLp0tP7j0qXjhah0SHvVKBAEFhJoin8sBIEEIOA5Ac8VJN8/oCBOzi4e8KBlp/P+xXJUJ9FBpfAPnAMgEAwBnxVkoX9AQeyfZ/AP+8xRY3EC8I/irJASBNwT8FZBivgHFMTyCaTMv1y+fDT/cvky5l8shwLVZRCAf2RAwS4Q8JmAnwpS0D+gIA5PLR4OwYSLwyigaiYA/2AU2ACBYAhMp9MkSbxqbnH/iElBvvrVr3oVhfzGuPUPeTAmv5042hAC8I+GBBrdBAGzBEr5RzQKYpap7tKd+weevqo7pGGXB/8IO35oPQh4QqCsf0BB7AcO/mGfOWrMIdAs/6BXyeARIDknBA6BQDUCFfwDClINdeVcbmdA3NpPZWjIaI5A2P4xmYh2u8Sb3sbjWXrlvXQKXPm9M8ohEx/pxTf9vhgOFzSMah+PZ09xPUyMHxDwikA1/4CCeBVEo42BfxjFG2LhwftHr1cOe6uVd/GeTETLLpJDH+If5QW/vJ826BHyw+GshfAPBQ4+CiE2NjYccqjsH5EpiLV3xJgezKhfvlzC3p7A01cd/nn6WbXdi61rBnTxzmlFvz8bILH20+vN3krDP2Q/C6eH4B9MDBtMIEmSlZUVhwpSxz+iURCb74gxPZxQv3wuYd5zV7Eclf9+m7nRLP/o909c79Mh73QKTYKkM1bbk54MSu9Jlwz/SDPBHiGEWwWp6R9QkLLnMF/dDT3Mo375XAL8o2xwG5LegX8cLrAgD5BXWvCEAq2HkOlz+uHweKnHZDKbg+j1hFwI5aJDtJxiMjmRoNOZZRkOj385Cw1FtFqz1RW93nFFcku0b6dNgmrPryidKz89jjaHgEMFqe8fUJBSJypf3X32D3kKBk9fLRXfJiR24B804yBPPQyHx7Me/f5sfQNbxXh8vNxhMjkevUgXQtGiFabyNpuNELOiWFlo7SpXJMTMOSos/mDdkbVG2ZZr4bOKZlvk5gkxs5/DMZj8H/hHPp+GH3WlIFr8AwpS/Oz13z+UvphusFIdPvpPwLZ/0NVaiBP3ofT7Jy66vAKDrtDy7Sq0PZkcjU+kZytareOhC8rO135a/CGvrpBF5zBU8xZ/yFnSEa3sH7JacbHwD0aBjcoEnCiILv+AgsyLuzyWsLcntA8nWCgfCz7mBbeZ+x34hxCz4Q15pEHRCF6S2evNko3Hs1+6N4Rkgv+VCxFiNrYh71FWmyqLP5SjNPYgu44Qs0ppPMbEyYHxDxNUUSYRsK8gGv0DCpJ5GvP4gaHlFNbKNzRhlAkNO30mYNs/iIU80kCXYXmMgSWg3Z6Ni8iHZJTKqAmNqbC7kI7IH5WlFfIEECtRZl2y08gNqLmd6R/t9vEc07zyMf8yjwz2ywSSJNmz+H96vf4Rk4JcuXJFjkvlbWt+YNpvLJ6VlWEjow0CbvxDvs1EXrFBizBYAvIvtOmjyp52ezaAwT/5R5UhGZ61oVUjXEh6gwZmaN5k3r9yM+QSZA60X2mznJi3lY7wfmyAgEMC2v0jGgXRFRQL8yNyFUbnd3QxQTlBE3DjH/JVVl58SlMeDDR9eR6Pj5amsrXwghKaQGF3odUVrBHKbAt9pKMkB/KQjKIL+eMfdItN/r/cI2UjPYSjLElR0tNH+EcmFux0S8CEf0BBcmLKwyGGhhNMl5/TNRxqCAE3/nE4w8KTLJ3ObC0qqQAt9WD0dIctf6SHlNNHflSoPMPC6elOGdkblMUf9BTzw6K4GZxAacPC8Q9uXoWNyWQ2wcSSJGMRQrz73eJbv1UtlcZp+v3jXGoKfAYBFwQM+QcUZF4wTfuB6fLn9Qv7m0PAjX8c8qVrLV3+yRvkx3twAOhGVkrM12k6Sq9BUXYeDl3QtVlZ3kHlcLGHuUg4eLyE1otktkH2GC5B1wapUub7X979bvGudx3XQ89fZ260cXwYWyDglIA5/4CCZAZWix/IEy5KLVrKV8rERxCQCTjzD7kRJrblKZ6a5Rv1j5ptQ3YQKEXA3APajfpHZAqi5R0xWvwgp5CcQ6VOOSQGgXkE4vEPerAp9ZNXh8zrdqn9RdZklCoQiUHACQG6KXd9fd1E7ab9IxoF0fWOmJyhi+LxzZEMLeUXbwlSNpBAPP7BTx4j+ZAnVirHlZ47QnM3Wgqs3BJkBAEtBJIkWV1dNaEgFvwDCqLlHJALyfEPORm2QcAEgXj8g26EwcJME2cJyoyJgCEFseMfUBC9pyL8Qy9PlFaKQDz+UarbSAwCTSZgQkGs+QcUpM6pK8+q7O2JS5cEPW3s0iWhHKpTC/KCQBEC8I8ilJAGBGIjMJ1O9U7E2PQPKEjl05EHPAw95LRyw5CxgQTgHw0MOroMAjMCehXEsn9AQaqdxPCPatyQywQB+IcJqigTBMIgMJ1Or1+/rqWt9v0jJgW5fPmyligsLESZZNH+kPWFDUACEGAC8A9GgQ0QAIHqBJz4RzQKUp17vZw8HGLoIe7UOll66rUXuaMiAP+IKpzoDAi4IuDKP6AgdSJuzT9ouYlRy6nDAXmdEIB/OMGOSkEgNgIO/QMKUvlkgn9URoeM9QnAP+ozRAkgAALCrX9AQaqdgvCPatyQSwsB+IcWjCgEBOIhUO3pqM79IzIF0fKOmIUnpZ2VGXYsZ2FnkcA3AvAP3yKC9oCASwKVb8r1wT+iURBd74hxdSbJWrO3J3CXjatAeF4v/MPzAKF5IGCbQDUF8cQ/oCC2T5es+njAA085y8KDfUcE4B84FUAABFQCFRTEH/+AgqjhtP4Z/mEdeZAVwj+CDBsaDQKmCZRVEK/8Awpi+vTILx/zL/l8cJQIwD9wJoAACGQTKKUgvvkHFCQ7qC728nAInv/hAr+/dcI//I0NWgYCzgkUVxAP/QMK4vz8oQbAPzwJhG/NgH/4FhG0BwT8IjCdTq9cubKwTX76R0wKcvHixYVR8DMB/MPPuDhvFfzDeQjQABCIgYC3/hGNgvhwlsgLO4q3B/5RnFWjUsI/GhVudBYETBHw2T+gILqiXs0kqlmLrjajHG8JwD+8DQ0aBgIhEfDcP6AgWk6mav6hpWoUEh8B+Ed8MUWPQMABAf/9AwpS/7SAf9RniBKYAPyDUWADBECgKIGNjQ0laRD+EZmCfOQjH5Gj8Mgjot2e/b7nPfJundvwD500G18W/KPxpwAAgEBJAkmSrKysKAoSin9EoyDpd8Q88ohotWa/Gv1DXrqBN7mU/ENB8gUE4B8LAOEwCIBAmkBaQQLyj1gVxJB/5L/DhY7iwWLpvxHsWUgA/rEQERKAQKMJDAaDpTs/a2trMghFQcLyjygVBP4hn5/Y9p8A/MP/GKGFIOCMwM7OztmzZ/fv/HS73cFgIDdFVpDg/CM+BTHkH/IUzOXLggY8Ll8W8n6Mf8h/F9guSAD+URAUkoFA0wkMBgNlCEQIwQoSon9EpiBvf/tnta//UE56rD9VgOBjHQLwjzr0kBcEmkJgf38/Pf5BnScF+Z7v+Z5AWVy7dq3b7T5056ff79++fTuIjvDdLnTPS7stvv3bv0H+8Z3feXQjDB/StSIV/hHEuRFKI+EfoUQK7QQBZwRGo9HS0tLy8vLu7q7SiHPnzi0tLf3gD/5gu91WDgX0MUQF4dkWco78f+EfAZ2NzWkq/KM5sUZPQaAWgdFolKkgVGig8y9MJDgFgX9w7LARKAH4R6CBQ7NBwDaBnZ2dBx98cGdnJ7Pi0P0juLUgk4lQfn/v946e//Hbv60emkwyg1Z6p7zmtHRmZACBkwTgHyd54BMIgIBEYDQadbvd/f19IcRgMOBtKcnRZgT+EZyCKFH4wz/U//wxpQp8BAGNBOAfGmGiKBCIkAA//yNn8kUIEYd/BK0gPCOja7VHhGczuuQTAfiHT9FAW0AgWAJp/1Ae0B5Qz4JbC0JsM8c//uzP/iwg8mhqowjAPxoVbnQWBEwRUPyDbspdX183VZ/hckNUkPT4R/odMYaxVSkea0qqUIsiD/wjijCiEyDgmoDiH/RostXVVSiItchkjn/4ryB4poi1M8S3iuAfvkUE7QGBIAmk/QMKYjmQ8u0wctWeKwj8Qw5Wo7bhH40KNzoLAqYIZPoHFMQU7pLl+qwg8I+SwYwnOfwjnliiJyDgkMA8/xBCTKdTTMQ4DA1V7a2CwD+cnxuuGgD/cEUe9YJAVARy/AMK4kmkPVEQecHp3p64dOnonbqXLuGdup6cKZaaAf+wBBrVgEDcBPL9gxTk2WefDRdCiHfEpGkfHBx87nOfS++3uYcHPM6fPzKPzI29PZuNQl0OCMA/HEBHlSAQH4GF/hFBl+NQEOeBgH84D4EnDYB/eBIINAMEwibQBP8I+umo/pxeyvzL5ctHoyCXL2P+xZ8o2WgJ/MMGZdQBAtETaIh/QEG0n8k8HIIJF+1sPS8Q/uF5gNA8EAiDQHP8Awqi94yEf+jlGVBp8I+AgoWmgoC/BKr5B56O6kNE//zP/9xhM+AfDuG7rRr+4ZY/ageBSAhU8A88F8SH2Du/KRf+4cNp4KQN8A8n2FEpCMRGoIJ/4LkgnpwEbhVEXo7qCRA0ww4B+IcdzqgFBCInUM0/oCCenBZuFcQTCGiGZQLwD8vAUR0IxEmgsn9AQTw5IaAgngSiOc2AfzQn1ugpCBgkUMc/oCAGA1OmaChIGVpIW5cA/KMuQeQHARAQQtT0DyiIJ2cRFMSTQDShGfCPJkQZfQQB4wTq+wcpyPb2tvG2Gqsgjge0HxwcbG5uGoOEgkHgiAD8A919IJUAACAASURBVKcCCICABgJa/ENDO1wXEYeCuKaI+htBAP7RiDCjkyBgmgD8gwlDQRgFNkAghwD8IwcODoEACBQlAP+QSUFBZBrYBoFMAvCPTCzYCQIgUI4A/EPhBQVRgOAjCCgE4B8KEHwEARCoQsCcf+AdMVXioTvPX//1X+suEuU1nQD8o+lnAPoPAloIGPKPJElWVlagIFpiVLkQ3JRbGR0y5hCAf+TAwSEQAIGiBAz5hxACClI0BibTQUFM0m1o2fCPhgYe3QYBvQTM+QcURG+kKpcGBamMDhkzCcA/MrFgJwiAQDkCRv0DClIuGMZSQ0GMoW1iwfCPJkYdfQYB7QRM+wcURHvIqhUIBanGDbnSBOAfaSbYAwIgUJqABf9gBdnY2CjdPj8yxHFTLhTEj7Mp+FbAP4IPIToAAj4QsOMfpCBPP/20D12u1oZoFORf/uVfqhFALhAgAvAPnAkgAAIaCFjzDw1tdV1EHArimiLqD54A/CP4EKIDIOADAfhHqShAQUrhQuIoCcA/ogwrOgUCtgnAP8oSh4KUJYb0kRGAf0QWUHQHBNwQgH9U4A4FqQANWaIhAP+IJpToCAi4JODWP/7iL/7CZedr1B2Tgvzd3/1dDRLI2jgC8I/GhRwdBgETBBz6Bx7QbiKgZcvETblliSE9/APnAAiAgAYCDv2DbspdXV3Fa+o0BLJGEVCQGvCamBX+0cSoo88goJ2AW/+AgmgPaLUCoSDVuDUzF/yjmXFHr0FAMwHn/gEF0RzRqsVBQaqSa1w++EfjQo4Og4AJAj74hxBiOp1iIsZEfEuVCQUphauxieEfjQ09Og4COgl44h9QEJ1BrVEWFKQGvKZkhX80JdLoJwgYJeCPf5CC/Pu//7vR/hotPI6bcg8ODv7pn/7JKCgUHjQB+EfQ4UPjQcAXAl75hy9QarQjDgWpAQBZ4ycA/4g/xughCFggAP/QDhkKoh0pCvSKAPzDq3CgMSAQKgH4h4nIQUFMUEWZnhCAf3gSCDQDBMImAP8wFD8oiCGwKNY5AfiH8xCgASAQAwHN/nHjhrhxQy+Xv/mbv9FboLXSYlKQJ5980ho3VOQ5AfiH5wGKrXmTXs9Ql25NJnvDoaHCUexCAnr84+ZNsbkpnnxSnD8/+33yydnHmzcX1r4wAZ4LshCRhQS4KdcC5ICqiME/bk0mFYhXy1WhImRhAlf7/UzsyXjMaYpskGok47FSWjIeQ0GKADSRRoN/XLkiLlw4Mg/yD/r3wgVx5Ur9NkNB6jOsXwIUpD7DaEpw4B96v6femky2Wi3lOrQwPNVyLSzWSYJQrrjJeHy135cR7Q2He8PhxU7nYqcj78/fvtjp7A2HyXg86fW2222l+/MUJ79MHK1PoK5/3Lx5LB/b2zPhuHJFbG8f6ciFCxgFEULEMREDBan/5xZHCQ7842q/X+p6sxB02W/PVGC1XAsbYznB1X5/u922XGmF6m5NJumg7w2HtyaTSa+XPjSviqv9vhy4q/2+Yp9U4Lzs2G+OQF3/2Nw8Uo3r10808vr1o/2bmyf2V/2AUZCq5HTmg4LopBlsWQ7842Kno3wPDpae+4Zf7ffNrajQ2L2r/f68oJfyDzp5eLgrGY+3Wi2l5Emvxwk0dgFF5ROo6x+05mN7O6MWGgXRt25RVZDXXtt74okrv/M7X/zpn/7iW9965Xd/9+vr6xnN8GYXRkG8CQUaUouAbf+giQ/5K6wQQr5ayNtFepZOr+xRPlKZ6Z3KHuWj3JKcQ3Kyyts55acPpa++XG86cXoPJza9Men1lKBzjWX9Qx7vodNJMbC94VAxEq4LG+YI1PKPGzeOBjky13lcuXJ0VN8dMawgN5566r9++Ie3Wi3l9wtvecu8M9Ycw+IlQ0GKs0JKbwnY8w+asL/Y6Wy325Nej7+k0jd4+jjp9WhBgMyLvjrTvzTxT0dpseF2u83/m7g1mVBptAjgar+/NxxOej35asS5+GLMUwByrsxBGkpJxZZd6ii3jdqfnjpJxuPtdpv7K0PgjtBRbvNWqyXDZDLUa8rFOwkOrb+hbWXxhFyj3u2t1twzrZR/KK3aGw7TBpaMx8UndJQC8bEygbD84+gdMWfPKtqhfNz98IcrAzGdMRoF+eQnP2maFcr3k8Dcq4Kh5iqLP5LxmO5ioOuoEEK5KsseQIPt7A1kFXQ9ptbyHrqK007KRdskAUIIuVi6BlO9bCqkAjIEpfaLnY7ytVtOnN6mkmW7UgpUyMiFy4fk7iisqFK5CuLJWIQQk16PFkxkDkSlm817yBJorei8f1kEORdt3JpM5EEL5Wgd/yCdVQqkrik78bEygbW1taU7P8vLy7u7u/PKqeUfQhzdc2tl/oW6sP/002wbnz916tojj7z85JMvf/zj1973vqe/7dvo0NOve903vvjFeV12vj8OBXGOEQ1wRcC2f8gXfro6CiHoWywhYL1Q9isfaemiEEL++iubBAPdGw754kdXYuXSS1dNupmCc6Uv7Ypw0CgOp1+4QbUohfDXdLIKvn7LtwgpmiKPu8juRQ1QEhM06j4VLt8wwqjpzhQafFrYkQoJDPkHRZahyQ1TFqXKh7BdisBoNFpbW6Msa3d+5mWv6x+21p9y+y8+8ABJxhff+tZbJ+d9Xnn++S/8+I/T0eff9jbO4uEGFMTDoKBJBQlY9Q/lws9NpBkE/sgbyjU+nUx2CzkXD2OQ4vBlntKk3ULxGHnYgLKQIcmXuq1Wq8LkxVarJRfC7eRbSWmCifcLIRQI3M10m2lcR5npoAEPzpW+MMuuI9sJZ6m/kR5MksusNv5BTiPDlMtMd1M+iu1qBEajUc4QSF3/sHL/LXec/l9EhrG/tcX7eWP66U/T0a1W6/aLL/J+DzegIB4GBU0qQsCqf8y7Ds277CnX+HQyZW0HLWVVrvHyAAkRUcZgOJfMS6lauYrLAzZyrvztdC42mHzJ4GRy+ZmzDDyNxSnlPekGkGnxXI880cMl1N+YF3cquYJ/0PIXHr9Jt1CRsHQC7KlAYDAYdLvd/f39zLx1/UOI2QM/TD5/TG72Sx/7GOnFcz/7s/J+efvZ+++nNDeeekre7+E2FMTDoKBJCwlY9Q/58iZ/c838tpqeSuBkdOGRR1O4NGVEhC/StyYTSkN7qATOpYyI8PWScylDL8rHhZQpgZJLGeTIkYzMC63cZrlrcjnKsI3SAG62zEFuFSegkZV5yz54f2Y7M/VOLrmCf7AwUTlKm/One+SqsV2cwM7OzoMPPrizs6NkOXfuHK0O0eAfQsweMmbm+etKs+nJMVut1gt3Z5cowd///d9zyi/fXZ361Q9+kHd6uxGTgvzjP/6jt5zRMI0ErPoHDzzwOlBlVYfcMVkU6Gs6fanllR98AZafwy0rDuWi1Q98ieJc8oMy6WYQrp0L4VzyLRXUMOUSyHlzNrj7dEmWRUE+RCXw/UHKcA6tIVXGLbgxFzsdlgmSBj5EUzlypUpT6bI9zyGUxGU/brfb80rO9A96XllmFrqVl1Yu02oYDhO1Cv5RNjoL0+/s7Jw5c2Y0GuWk1OMfXIGB989x2UKIF//kT2hs49Iv/RLvT5JkZWVl/e7DP577+Z+nNP/z0Y9yGp834lAQPJrM53NMb9us+gfduSrLB11N5Wuk3D2+15Qe1E3XML7Y0I0eSmnKhZzEQn7yN92SKq/iTC+kSOeiAX9qBg0q8IX8leeeu/7oo/m/33j2WXKOi53OrcmEh1W4s3y5paOyG/E9tLRQg1nxfgYirzalAuVD1M3MKzo1I+cRHdzOyhuZhXNYaY6MzZKtlCFzvTQRRlcF/ldWLjIzpeOcHRsVCIxGozNnzqRHPpSiNPuHUrruj/uf/zydPzunT//fq69y8awgBy+99Mwb30hpXnn+eU7g+QYUxPMAoXkyAav+IYSgr61yC3KuiJSeL0LySkkqQdEISi8Xnlljug3KBSwzFwkEXxq5lleee+7GJz6R/0v+wcMemV2m3inPF6da6BBz4KrT3ecq0hdgMhvOq2zwg1Uy26YkrvAx85lgPIbBG3LJilnSIU4pb8i5aNQnHVAlDT4WJDBv2iWdPSz/EEI8813fRXrx5d/6Lbk7pCCfeutbjwTlB35APur/NhTE/xihhUTAtn9EwH3eKopwuyaPx6TFRVe/aOyneGlp3SySF5MvRSgVTzMYDHh5x9LSksH7X4q3SVPKvSeeIMPYarUu/cIv/O/dpS3/+8wzz/7cz/Gh//mrv9JUob1ioCD2WKOmGgTgH4vh8ZIRGhfhp4kszhlCClrnu91ub7fb6XuFNPYg/bSS/MLT4z356emoPIlTJD3S6CIQ3PiHEOLyO9/JnrHVan3unns+9x3fIe/51M/8jC4+lsuBglgGjuoqEIB/LIbGy0FoEiG+sX2amsmfoFmMqUAKeV1LfnJ5SCY/pXyUJmXkPdi2RiBE/xBCfGVlRRYOefvy6urKysrGxoY1hnorgoLo5YnStBOAfxRFamhhRNHqY0lnbn6n2nxNLFzd9yNQ/xBC3PjkJ//fO96xfe+9JB/b7falX/zF5J//eTbemST5d/24557bgmgU5MKFC7kdxcEgCcA/ggwbGg0CvhEI1z+Y5KtXr756/Tp/jGMjDgWJIxbohUIA/qEAwUcQAIEqBCLwjyrdDiEPFCSEKDWxjfCPJkYdfQYB7QQC9g/DzzrTjrpCgVCQCtCQxTQB+IdpwigfBBpBIDz/sPWsd0/CDwXxJBBoBhOAfzAKbIAACFQnEJh/1HjX3T/8wz9Ux+Q0Z0wK8s93Fgg7xYnK6xKAf9QliPwgAAJCiJD84+bN4xftbm/P3rt75YrY3hbnz89+L1yYvQZvzg8/oH3Ocd93x6EgeEeM7+dZsfbBP4pxQioQAIFcAiH5x+bmkWood7tcv360f3Mzp69JkqyurvJr6nJS+nkICuJnXBrYKvhHA4OOLoOAfgLu/aP4MtInn5x5xvZ2BgUaBXnyyYxD0i4oiATD2SZGQZyh11Sxbf+gV9vzS1zze0FvILvY6ZR6FDc9rrRgFfkNMHfUwsNGzTUeJYNAmoAz/yi7jPTGjaNBjitX0r2YTcTQLMyNGxlHpV1QEAmGs00oiDP0Oiq27R9CiEmvV+ohmBVeSjLp9S52Ojr46C+DHuK+1Wrhgar64aJEdwTc+EeFZaSa/EMIMZ1OMRHj7ow7qhkK4jwElRvgwD9K+cStyWSrVbqRFzudUopTGV/ZjMl4vDcc7g2H8I+y6JDecwIO/KPyMtLa8y8cCygIo3C4AQVxCL9O1aUv7XUqE0KU9Qn53bMFq6YqfH5LHL1yFuMfBQOKZEEQcOAflZeRVs6YFYnpdPrUU09lHQljXzTLUf/2b/82DOJo5V0Ctv2jrE+UfWn77JVR4/F2u323gz7+F/7hY1TQpnoE6vpH8dWj3M7KwxiVB0646rg24lCQuGLSiN448I/0zMjecEgzJlf7/WQ8lgcGtlotWi9Cq0rlQ7cmEzqkLCihJa4+Rw/+4XN00LZqBCr6R9nVo9y4mss4Kiwc4apj3ICCxBhV3/tk2z/Siz9kXaALM9/tQjMpfCeL7Bk0yME6wmmEEBUWf/AtM5Neb94v11U/pPCP+gxRgm8EqvhHHQmo6R9CzB4ytrkpaBDl/PnZxuZmzpPHfAOuvT1QEO1IUWA+Aav+kV78oVyJlY/KZA2bCpUjj6PwdubiD1rymSMQdDdszr/5EMseVbpZNjvSg4CHBEr7R/1JkMrzLwq+ClM/SgmxfISCxBLJMPph1T8Un6CxCvlGWboxhMkpiz84+9V+f6vVohtZk/GY5SO9+OPWZMKjKdvtdo6CcKVlNya/8isXH3gg//e1k49zhn+UhYz0/hMo7R/1F4HWL6Ey1kXK8qlPfapy2W4zxqQg//qv/+oWJmrPJ2DbP2RXEELQ8g5uIs198EdlJmW73SZZudjpyNbC6YUQPEZCO2WDUQqXc9XZvv21r4n/+7+c31upxxzBP+oAR14/CZT2j/qjF/VHUMqiLDZlg5tyy3I1kR435ZqgqrdMq/7Biz/o5li6DPP4hBBiu92mj5Rgq9Xi22jliZXtdlvxGIbCykJDHbcmEy5BdhFOTxv0vDLSmnn/ahw7gX8o/PExAgLl/KP+6g1CVmcFSVnoZeqCgpSlayI9FMQEVY1l2vMPEghaY0H2ICuFEIKfykUP6SId4au+PLCRHsngu2ZIWejB7Qomfx75Bf9QQoOPERBw4x/WlpGWH2uBgvhwVkNBfIjCvDbY8w/2CXnogsckaBkHPeqUb2bho3SDLvfh1mRysdOR1YQHOWiRh1wF5aI7e7kEVxs0HjPp9WjiibXJVXtQLwjoIlDOP4Q4uvGkxkvg1JYvWpOhpi/1udJaEyhIKcaGEkNBDIGtX6xV/6BBDnYFehwqmQdPl1zt91ksaD1ppjrQCAfd2KJQSKffGw7lSpX0Nj/y89ep5f40zCYE1BUlgdL+UemK7gxd1dUqUBBnIZMqhoJIMDzatO0f9ruejMcsH/JaE/stQY0gEDGB0v5RfkbDGb16q1WgIM4CJ1UMBZFg+LIZuX/QY8poSWnOqlVfooF2gECwBEr7hxCzl91fuHD0vnt66z39e+HC7JA/P/X8g96U+/GPf9yfDpVtSRw35R4cHPzlX/5l2b4jvTkCkfsHrbegIRAeBTFHEyWDQGMJVPEPa6tH60el6vxL/Zo9KSEOBfEEJppBBCL3D4QZBEDADoGK/sGNM7p6lGupvBHWapXK3czNCAXJxYODpQnAP0ojQwYQAIE0gbr+kS7Rqz0BrVYxyQ0KYpJu48qGfzQu5OgwCJggELl/BLRaxUR0pTKhIBIMbNYiAP+ohQ+ZQQAEiED8/qF7tcqnP/3pQE+emBTkP//zPwONQgTNhn9EEER0AQTcE/DFP+ysI6ldC27KdX/KCoGbct1GAf7hlj9qB4FICDj2j2JvhvOKNRTEh3BAQRxGAf7hED6qBoF4CLj0j1CeI5KKNhQkhcTBDiiIA+h3qmyKf9CrZPAIEFfnGeqNnoAz/wj8zpQkSVZXV9fX1wM9Q+JYCwIFcXL6heoftyaT7Xa7uE/Qg1DT76WTocvvnZH3G91Ov8vXaHUoHAQMEXDmH+E/mQMKYuicLFUsFKQULi2JA/YPfk1uQRBbrVbO+19uTSb09t2CpdVMlozHk16P3utbtiM1q0Z2EDBBwJl/RPFk0iRJVlZWNjY2aobmsccea939eeyxx2qWVjw7RkGKs0JKJhCqf3AHCm7sDYf5enG1399utwuWpjHZxU4H/qGRJ4pyRcCNf9R+M4srXOl6kyT52Mc+lt5ffM9jjz32+te/fmtrSwixtbX1+te/HgpSnB6lPDg4qG+BZSttbPqm+MfVfj//Mn+x08mfnTF0isA/DIFFsZYJwD8sA1equ3bt2r333isLx2OPPXbvvfdeu3ZNSWnuYxyjIOb4oGSFgFX/uDWZkAfIKy14TiQZjxUD4PR7wyEv9bg1mewNh5NeTy6EekWH9obDq/3+rclETkCX+b3hkH85C63A2Gq1KA1XpJAy9BH+YQgsirVMwI1/CCGimH+pHywa8Dh//jwXdf78eR4O4Z2mN6AgpgnHVL5V/6ARCHnF5d5wyLMeV/v9rVaLpSEZj3nFxq3JhEcv0oVQPGiFqbzNZjMbjWy1WFlo7SpXJISgusrGlXWHnSa9IdeSWT78IxMLdgZHwJl/hL/+1FCs7Y9/UEegIIYCGl+x9vyDrtZCiO12m8c5rvb7FzsdxsouQqtBOZkQgrZvTSY0PiEXQtm3Wi0euqDsfO2nxR98lHSEj1LhXDU3hrxETiYfEkLAPxQg+NhkAs78I/D7bw2dMzQc0u12DZWfXywUJJ8PjhIBq/5B12x5HaiiEfIgB/lEMh7TTSLkAfyvXIgQYtLryXuU1abK4g/lqBAivfgjGY/pd7vdlsdRtJ83GP/QjhQFOiHgzD+ifjPcv/3bv1WIJsnHAw88MJ1OK2TXkiUmBXnmmWe0MEEhCgF7/kEVy7eZ0CiFPCzBAx7b7fbFTkc+JLdbGTWhMRV2F9IR+aNyjZcngFiJ5Lpo3Qm5jtxguQ26tpW26SoW5YCAZQIu/UP3m+Eso5tXHd2UW/bRZLQQ1a18UI/iUBA8F2Te+Vl/v23/kEca5BUbNNnBEsArPzJ7mD6q7FEGLfKPKk/+oIWrrC+0WCSzGTQwc7HTyfldOHYC/8hki53BEXDsH8yr9pvhuCQfNio8mszJstN5rKAg88hgvxDCtn/IZiAvPhVCyJdqWVMoTsl4TAMSbC28oIQmUNhdaDEpJaZi01MzdJRqlEc45DZQvfTg9sxzhUwl/9/MjPJO+IdMA9vhEvDFP8IlOKflZRXk/Pnzlm+7ndPwo91QkHw+TT5q2z/ky/nFTme73WarYIEgaeARCFofymZAow40ycKRoztyaTJFWQuiLP5IxmNa8cpzPZyAFnxwmVSavDxWPqRrm2aa2JZ0FYtyQMAygab4h4vxlbIKYjn0C6uDgixE1MwEtv2DZIIthLxBfrwHh4HuZaWUyuX5YqezNxwqO/mxH8ryDiqHi+Vnisi6Q49Cl/eQfLCjcHaNG5Nej3pH/8q+pbEWFAUCdghE7h83b4rNzaNnjZw/P9vY3BQ3b9phK4Qo/qZc38Y/CBEUxNqpElBFDvzDNB15iqdOXSwfvFGnNOQFgbgJxOwfV66ICxfE+fPq74UL4soVa2EtriDWmlSqIihIKVxNSByDf9DoBUWLV4fUDB4ty6ChFIxM1ISJ7E0gEK1/+PR8kel0+tGPfjTc0ykaBRkOh+FGwZ+Wx+Af/OQxkg9lGqUCa5qj4cmR+gVWaAOygEBYBKL1DzxfVeuJGIeCaEXS3MJi8A+6EYbe+dLcSKLnIOCUQLT+gffL6D6voCC6iYZaXgz+ESp7tBsEIiIQp3/cuHG05iNznceVK0dHb9yIKJI2ugIFsUHZ+zrgH96HCA0EgRAIwD9CiJJHbYSCeBQMR02BfzgCj2pBIC4Cxv3DxYM3ZiHyfv7ls5/9rBDiM5/5zLve9a4f/dEffctb3vIbv/Eb4/HY//MrJgX57//+b/+B+9ZC+IdvEUF7QMBHAoPBYG1tLadlpvzD9YM3Zs/5oDtvr18/0f3r14/2b26e2G/3A92U+9BDD73xjW/8yZ/8ybe//e3veMc7fuqnfuq7v/u7V1ZW7LalSm1xKAjeEVMl9vafv16tlcgFAiDgkMBgMFhaWnLgHz48eMOn+28zz4F+v/+93/u9vV7vXdLPr/3ar/3QD/3Q+973vswsXu2EgngVDpuNwfiHTdqoCwTCI7C2ttbtdh9//HHb/uHPhd8HDZpz4uzu7n7TN33TL//yL0vucbT5zne+81u+5VuuXr06J6tHu6EgHgXDYlPgHxZhoyoQCJaAg/kXryY+nE8DzTlznnjiiR/7sR9Lywft+ZEf+ZGPfOQjc7L6tRsK4lc8rLQG/mEFMyoBgcAJzPOPc+fOLd390dxFPxd+uloGOwfuI488ct99983zj5/4iZ94z3veMyerd7uhIN6FxHCD4B+GAaN4EIiCwDz/4M5pXn+KB28w2dyND33oQ2fOnJnnH/fdd98HPvCB3AL8OggF8SsehlsD/zAMGMWDQBQE4B9+hvE//uM/3vSmN83zj+///u//zGc+42fL57UqGgUZDAbz+oj9RAD+gTMBBEBgMQHb/hHCgzcWU7OS4m1ve9v999+fVpD7779/eXnZShM0VxKHgmiGEmNx8I8Yo4o+gYBuAg78w6v1p7p5aizvK1/5ytLS0pkzZ7rdLlnIr/7qr953332nT5++fPmyxopsFgUFsUnbVV3wD1fkUS8IREVA8/oPIYQ/9996H6iXXnrpN3/zN1/3ute96U1v+r7v+75v/uZv/vVf//UXX3zR+4bnNRAKkkcnimPwjyjCiE6AgGsC+v1DCOHxgzdc886o/9VXX/38nZ9XXnkl43CAu6AgAQatRJPhHyVgISkIgMA8Akb8g0ZBNjePXsJy/vxsY3NzNjSCnzIEnnnmmTLJPUobk4I899xzHpH1oCnwDw+CgCaAQPgETPkHk/HswRvcLv836B0x6+vr/jc1s4VxKAjeEZMOLvwjzQR7QAAEShMw7h+lW4QMxwSgIMcs3G1BQRT28A8FCD6CAAhUIQD/qELNYh4oiEXYc6uCgsho4B8yDWyDAAhUJAD/qAjOYrYkSVZXVzERYxF5RlVQEIYC/2AU2AABEKhOAP5RnZ3FnFAQi7DnVgUFITTwj7mnCA6AAAgUJwD/KM7KbcokSVZWVjY2Ntw2o3LtWI5aGZ1vGeEfvkUE7QGBIAnAPwIKW5Ikf/qnfxpQg5WmRqMgH/7wh5WuNeoj/KNR4UZnQcAUAfiHKbIoN4tAHAqS1bMG7YN/NCjY6CoImCMA/zDHFiVnEoCCZGIJaCf8I6Bgoakg4C8B+Ie/sYm3ZVCQoGML/wg6fGg8CPhCAP7hSyQa1g4oSLgBh3+EGzu0HAQ8IgD/8CgYlZryhS98oVI+95liUpAvfelL7oHaagH8wxZp1AMCUROAfwQdXropF48mcxvEpj0XBP7h9nxD7SAQCQH4R+iBxKPJfIhgoxQE/uHDKYc2gEDwBOAfwYdQCCiID0FsjoLAP3w439AGEAieAPwj+BDe6QAUxIc4NkRB4B8+nGxoAwgETwD+EXwI73YAb8q9S8Llf5ugIPAPl2cY6gaBaAjAP6IJpRACCuJDNKNXEPiHD6cZ2gACwROAfwQfwpMdmE6nf/zHf3xyX0if4rgp9+Dg4EMf+lBI3Mu0Ff5RhhbSggAIzCEA/5gDBrudEYhDQZzhM18x/MM8Y9QAAg0gAP9oQJDD6yIUxOeYwT98jg7aBgLBEIB/BBOqhjUUCuJtwOEf3oYGDQOBkAjAP0KKVsPaCgXxM+DwDz/jglaBQGAE7m5qtwAACe9JREFU4B+BBaxSc59//vlK+dxniklBXnjhBfdAdbQA/qGDIsoAgcYTgH9EfwrgplwfQhzTTbnwDx/OKLQBBIInAP8IPoQFOgAFKQDJeJJoFAT+YfxcQQUg0AQC8I8mRBmPJvMkynEoCPzDk9MJzQCBsAnAP8KOX5nWYxSkDC1TaSNQEPiHqZMD5YJAowjAPxoVbiiID+EOXUHgHz6cRWgDCARPAP4RfAhLdgAKUhKYkeRBKwj8w8g5gUJBoGkE4B9NizitBfmjP/qjcDsex025BwcHH/zgB0OMAvwjxKihzSDgHQH4h3chQYMKEIhDQQp01Mck8A8fo4I2gUBwBOAfwYUMDSYCUBBXZwL8wxV51AsCURGAf0QVzoZ1BgriJODwDyfYUSkIxEYA/hFbRBvWHyiI/YDDP+wzR40gECEB+EeEQa3UpS996UuV8rnPFJOCfO1rX3MPdFEL4B+LCOE4CIBAAQLwjwKQ4k+Cm3J9iHEoN+XCP3w4W9AGEAieAPwj+BBq6gAURBPIWsUEoSDwj1oxRmYQAAEiAP/AmcAEoCCMwuGG/woC/3B4eqBqEIiHAPwjnljq6EmSJKurq+vr6zoKc1BGHGtBPFcQ+IeDMxtVgkB8BOAf8cW0Zo+gIDUBasnus4LAP7SEGIWAQNMJwD+afgZk9T9JkpWVlY2NjayDAezDKIjRIME/jOJF4SDQFALwj6ZEumQ/kyR5/PHHS2byKHk0CvLoo496hPVOU+AfvkUE7QGBIAnAP4IMGxpdgEAcClKgo7aTwD9sE0d9IBAlAfhHlGFFp4gAFMTEmQD/MEEVZYJA4wjAPxoX8oZ1GAqiPeDwD+1IUSAINJEA/KOJUW9Yn6EgegMO/9DLE6WBQEMJwD8aGvhK3b569WqlfO4zxaQgL730klug8A+3/FE7CERCAP4RSSDNd4NuysWjycyTzqvBh+eCwD/yIoRjIAACBQnAPwqCQjIhBB5N5sNp4FxB4B8+nAZoAwgETwD+EXwI7XYACmKXd3ZtbhUE/pEdFewFARAoRQD+UQoXEmMUxJNzwKGCwD88OQfQDBAImwD8I+z4OWo93pTrCPyJal0pCPzjRBjwAQRAoBoB+Ec1bsgFBfHhHHCiIPAPH0KPNoBA8ATgH8GH0F0HptPpBz7wAXf11605jptyDw4O+v3+a6+9VhdH4fzwj8KokBAEQGA+AfjHfDY4Ej+BOBTEpnwIIeAf8f9hoIcgYIEA/MMCZFThM4E4FMQm4dYSfkAABEAABEAABGoTOH369KlTp+658/OGN7zhzW9+c+0iYy7A5fhHBF+Y0AWbsjyvLkRhHhmb+xEFm7Rz6kIgcuBYOESjIPfcc89DDz3U7/dv375toVITVVg4keAftQJnIUK12lcgM7pQAJLxJIiCccQFKoggCkKICHpBXXjxxRcLBM3HJNeuXTt16tRDd37CVRCKws2bN80hdukf586dM9cxOyWjC3Y459eCKOTzsXM0gsteBCeSECKCXpw7dy70m3Lf//73d7vdoBXk3Llzpm/Kdekfdv63iFpAAAQsEIjAPyxQQhXFCYSuIHEsRzWqIPCP4n8OSAkCIDCXAPxjLhocqEoAClKVnM585hQE/qEzTigLBBpLAP7R2NAb7TgUxCjegoUbUhAv/GNtbY3vMRoMBgWJeJhsZ2fnwQcf3NnZ8bBtC5vEUQg0BPv7+91ul06kbre7v7+/sMveJlhbW/MnCru7u8vLy0tLS/lU4/CPwWCwtrbm7YmxsGH8V7y8vLy7u7swvYcJBoMB/RVzIAJVEPrDGY1GIU7EcBSWlpYoECYUxL1/0GVjNBp5+JdQqknUkTNnzoToH6PRiE4y/psp1XcfEg/u/AghKBD+XL/LwqFLiCftl2Gu3fmZ150I/IP+n8uXvXk99XY//xULIfKD5W0XdnZ2zp49u3/np9vt8l9BiApCf8h0aQtOQTK/AmlXEPf+sbu7+/DDD4d4zVb+hgeDwdmzZ8Md/+DuZJ55fDSIjcFgkP9l3c9e0MWerhz8f163TZX/PEejUc636tD9Y21trdvtPv744+H6h3yq5AdLTunttjIWNZ1O3//+93vbWqVho9Go2+0uLy/zV+uAFIT+R8Qtl7tGCvLKK6/IOytvu/ePnZ2dM2fOhD5svrOz8/DDD49Go9D9I9zxD/lvINAvf9wFfxSQTmwayc+fXgzdPwi+cs3jiAS3EaiCM2d54I13hrJB1k4KKF/FQ1EQnnJdWlpKf+U4fE2drkC49w/2dP7yp6tvNstZW1sbjUb5/4O22Z5qddH4c4gjB3J/+YySd4a17Y9/yDDzT2/4hz/nWH6k/GnnvJaMRqPMK9+89L7tp7ngzO9yQSiIfP7QuKCh5XT2/ENWKl5tqgx1yv+z8+2UEkLM6wJPu8ph87D9OV2QW+v5N6d5UaAujEYj/5fg5HeBJu89mX/B+If8pxHENo0oy1+7g2h2upGeXw7SDaY9vISF/szTgQhCQbh3Ri9q9vyD+5OzQXNmhlQrp96ah3jNOXmV/9e//P4G+mcvhBgMBunRwvzO+nnUn/GP5qz/oDMh9PmXIPy74B+d0StfwTZUSCbfOUJXhKAVRP4GUoFGfhb3/sF/8EFP+BHlQP9g6MrNY1GBLp4IV5vSf6L++If8V5l/YmD+JR1Hy3vC/f8Pg5K/ghYZiH355Zc5r28b88Y/qJ0+j4LIUcj/q6e+3Lp1qxp89/5Bo83kiXwJrNYZ57mC/vvnUZxA139w++lcCrQXdA774x/ynF0+UviH8///KN+8Ax0L5F4sbL/nN+Xm+4cQwmcF4Sjk/9ULIerclOuFfzj/u0UDQAAEahKIwz9qQkB2ywQ8V5CFNHxWkIWN5wSVFQT+wQyxAQIgUJ0A/KM6O+SsQQAKUgOetqzVFAT+oS0AKAgEmkwA/tHk6Lvte5Ikq6ur6+vrbptRufbGjoLAPyqfM8gIAiBwTAD+ccwCW9YJQEGsI8+osOwoCPwjAyJ2gQAIlCUA/yhLDOn1EkiSZGVlZWNjQ2+x1kpr4CgI/MPa2YWKQCBmAvCPmKMbSN+SJHnve9+r8QHhlvsdk4JMp9OF9OAfCxEhAQiAwGIC8I/FjJDCPIFw5YPYRKMgRUIN/yhCCWlAAAQWEIB/LACEwyBQjEAcClKkr/CPIpSQBgRAYAEB+McCQDgMAoUJNERB4B+FzwgkBAEQmE8A/jGfDY6AQGkCTVAQ+Efp0wIZQAAE0gTgH2km2OMDgeBeaMrQolcQ+AfHGhsgAALVCcA/qrNDTmME9vf3f//3fx+PJjMGuGjBf/AHfzAYDJTU8A8FCD6CAAhUIQD/qEINecwTwKPJzDNeXEPmo8ngH4vBIQUIgMBCAvCPhYiQwBUBKIgr8nK9aQX5/5X4XtGFB5F9AAAAAElFTkSuQmCC;" vertex="1" parent="1">
          <mxGeometry x="186" y="831" width="409" height="203.09" as="geometry" />
        </mxCell>
        <mxCell id="Dw2MMW9WSzqWJ1zn07Y3-20" value="&lt;b&gt;Prediction&lt;/b&gt; for new point:(2,1)&amp;nbsp;" style="text;html=1;align=center;verticalAlign=middle;resizable=0;points=[];autosize=1;strokeColor=none;fillColor=none;" vertex="1" parent="1">
          <mxGeometry x="292" y="808" width="180" height="26" as="geometry" />
        </mxCell>
      </root>
    </mxGraphModel>
  </diagram>
</mxfile>
